<?xml version="1.0" encoding="iso-8859-1"?>
<!-- Generator: Adobe Illustrator 15.0.0, SVG Export Plug-In . SVG Version: 6.00 Build 0)  -->
<!DOCTYPE svg PUBLIC "-//W3C//DTD SVG 1.1//EN" "http://www.w3.org/Graphics/SVG/1.1/DTD/svg11.dtd">
<svg version="1.1" id="&#x30EC;&#x30A4;&#x30E4;&#x30FC;_1"
	 xmlns="http://www.w3.org/2000/svg" xmlns:xlink="http://www.w3.org/1999/xlink" x="0px" y="0px" width="100px"
	 height="50px" viewBox="0 0 1 130" style="enable-background:new 0 0 141.732 141.731;" xml:space="preserve">
<path style="fill-rule:evenodd;clip-rule:evenodd;fill:#4F4F4F;" d="M25.648,22.847c-5.968,0-10.804,4.778-10.804,10.671
	s4.836,10.671,10.804,10.671h90.437c5.968,0,10.804-4.778,10.804-10.671s-4.836-10.671-10.804-10.671H25.648z M25.648,60.195
	c-5.968,0-10.804,4.778-10.804,10.671c0,5.894,4.836,10.671,10.804,10.671h90.437c5.968,0,10.804-4.777,10.804-10.671
	c0-5.893-4.836-10.671-10.804-10.671H25.648z M25.648,97.544c-5.968,0-10.804,4.777-10.804,10.671
	c0,5.893,4.836,10.671,10.804,10.671h90.437c5.968,0,10.804-4.778,10.804-10.671c0-5.894-4.836-10.671-10.804-10.671H25.648z"/>
</svg>
